inDegrees=no
num_controls=7
num_derivatives=13
num_iterations=96
num_multipliers=7
num_parameters=0
num_slacks=7
num_states=26
objective=5.458252
objective_accelerations=0.798667
objective_balance=0.025469
objective_effort=0.190131
objective_height=4.369879
objective_ligament=0.074106
solver_duration=1157.596163
status=Solve_Succeeded
success=true
DataType=double
version=3
OpenSimVersion=4.4-2022-07-23-0e9fedc
endheader
time	/jointset/ground_pelvis/pelvis_tilt/value	/jointset/ground_pelvis/pelvis_tx/value	/jointset/ground_pelvis/pelvis_ty/value	/jointset/hip_l/hip_flexion_l/value	/jointset/hip_l/hip_adduction_l/value	/jointset/hip_l/hip_rotation_l/value	/jointset/back/lumbar_extension/value	/jointset/patellofemoral_l/patellar_flexion_l/value	/jointset/knee_l/knee_flexion_l/value	/jointset/knee_l/knee_adduction_l/value	/jointset/knee_l/knee_rotation_l/value	/jointset/ankle_l/ankle_angle_l/value	/jointset/subtalar_l/subtalar_angle_l/value	/jointset/ground_pelvis/pelvis_tilt/speed	/jointset/ground_pelvis/pelvis_tx/speed	/jointset/ground_pelvis/pelvis_ty/speed	/jointset/hip_l/hip_flexion_l/speed	/jointset/hip_l/hip_adduction_l/speed	/jointset/hip_l/hip_rotation_l/speed	/jointset/back/lumbar_extension/speed	/jointset/patellofemoral_l/patellar_flexion_l/speed	/jointset/knee_l/knee_flexion_l/speed	/jointset/knee_l/knee_adduction_l/speed	/jointset/knee_l/knee_rotation_l/speed	/jointset/ankle_l/ankle_angle_l/speed	/jointset/subtalar_l/subtalar_angle_l/speed	/forceset/tau_hip_flexion_l	/forceset/tau_hip_adduction_l	/forceset/tau_hip_rotation_l	/forceset/tau_knee_flexion_l	/forceset/tau_ankle_angle_l	/forceset/tau_subtalar_angle_l	/forceset/tau_lumbar_extension	lambda_cid13_p0	lambda_cid13_p1	lambda_cid13_p2	lambda_cid13_p3	lambda_cid13_p4	lambda_cid13_p5	lambda_cid14_p0	/jointset/ground_pelvis/pelvis_tilt/accel	/jointset/ground_pelvis/pelvis_tx/accel	/jointset/ground_pelvis/pelvis_ty/accel	/jointset/hip_l/hip_flexion_l/accel	/jointset/hip_l/hip_adduction_l/accel	/jointset/hip_l/hip_rotation_l/accel	/jointset/back/lumbar_extension/accel	/jointset/patellofemoral_l/patellar_flexion_l/accel	/jointset/knee_l/knee_flexion_l/accel	/jointset/knee_l/knee_adduction_l/accel	/jointset/knee_l/knee_rotation_l/accel	/jointset/ankle_l/ankle_angle_l/accel	/jointset/subtalar_l/subtalar_angle_l/accel	gamma_cid13_p0	gamma_cid13_p1	gamma_cid13_p2	gamma_cid13_p3	gamma_cid13_p4	gamma_cid13_p5	gamma_cid14_p0
1.5	-0.3839158730096307	0.04700615116677419	0.7816552758587851	1.072956616610744	-0.3586420162693498	-0.04405627404916746	-0.3332401590110323	0.8428284241195269	0.8428284241195557	-0.03307209371493496	-0.1736935504159725	0.2740660276864497	0.1538793453401573	0.5835732855345394	0.2756465462838639	0.5344377815681999	-2.483577054484467	-0.01833898605615654	-0.6205825061565431	0.6105778148526936	-2.273421818490688	-2.27342181849059	-0.3361010125911135	0.01898829399844049	-0.5556848175403554	-0.2414926042037331	-0.142597222510553	0.03514775036145792	-0.0006107447158014759	-0.127513605528399	-0.03517470522352835	0.01629477119028069	0.1318532561673126	-33.9319708557063	-2.855899994695728	2.13932111777254	-5.729850012142792	-426.8426986619226	-58.73085715884897	-9.241198144841142	0.6067752786568702	0.6811867451704182	-0.8151113065862804	-1.382843094546319	0.2953953438725093	-0.6047790083066569	1.638139078293743	-1.164587025236025	-1.164587025236075	-0.169445960242869	0.2751393881695832	-0.4854189470548819	0.4591678390801602	7.107424467457212e-07	2.462452271943922e-07	-8.293732153530608e-06	-4.018362056334528e-07	1.691755537981579e-06	2.070137093619507e-06	1.014939286076466e-06
1.51	-0.3780499286533205	0.04979618987479417	0.786957828753875	1.048053466816407	-0.3588133813036009	-0.05028478739036913	-0.3270544742623163	0.8200379500332924	0.8200379500335543	-0.03645171156283977	-0.1734885231771163	0.2684844831657637	0.1514833871821092	0.5895081212203391	0.2823027698518898	0.5259515400697901	-2.496679793769096	-0.01591221854505817	-0.6250596762355453	0.6264593640832921	-2.284352279597552	-2.284352279597489	-0.3397698746527484	0.02206609952689987	-0.5605448259846231	-0.2376479072268901	-0.1378212143354108	0.03452777864861014	0.0003892837055127959	-0.1241859817191508	-0.03544558622965599	0.01500726806786337	0.1278914814650371	-33.93596737214055	-2.430338293287735	2.224875910931536	-5.177316951258879	-423.2413830021361	-58.04381259716459	-10.19411282262219	0.570778424987732	0.6489999709972006	-0.8832188719722925	-1.217925629862116	0.2208066292249973	-0.3590988290351804	1.548197224167432	-1.009363032718025	-1.009363032723174	-0.4579165403039145	0.3299428745129112	-0.4743767862521651	0.3557104989695378	7.063223673968424e-07	2.65929144269102e-07	-8.18032082225498e-06	-3.886505848093581e-07	1.731208350821113e-06	2.283032452661099e-06	9.89402895766506e-07
1.52	-0.372127847797875	0.05265102278016891	0.7921719515738788	1.023030502372299	-0.3589595808278426	-0.05655605499663139	-0.3207129671455554	0.797147753860369	0.7971477538603645	-0.03986648007443293	-0.1732515495347397	0.262856721562007	0.1491275939682267	0.5948005853639944	0.2886053857548193	0.5167517665509331	-2.507539984431436	-0.01330588405409677	-0.6291333591680308	0.6417422884628994	-2.293366235876684	-2.293366235876655	-0.3431311451615624	0.02537757462849587	-0.5649282341544689	-0.2334596153707162	-0.1330452061605444	0.03390780693574048	0.00138931212304873	-0.1208583579099381	-0.0357164672357503	0.01371976494548794	0.1239297067625179	-33.93268513098359	-2.009804402978646	2.315524893255668	-4.691802012462524	-419.5597870956295	-57.48383434509015	-11.14485646263272	0.4783009702277172	0.6104652121512131	-0.957817710675699	-0.9343333700886152	0.3313087398453021	-0.5240815790033474	1.518414108095195	-0.7812860596895854	-0.7812860596895967	-0.1079276496786619	0.3218733027969446	-0.3900988921703884	0.5278868149463865	6.842816557584681e-07	9.917017975426239e-07	-7.750407690719195e-06	-2.703328103977031e-07	1.715427564017591e-06	2.686768469316273e-06	9.969302330305872e-07
1.53	-0.3661560178175536	0.05556756712220513	0.7972907236637994	0.9979090573178238	-0.3590794948849316	-0.06286830207092686	-0.3142220668507528	0.7741766468963102	0.7741766468961857	-0.04331304624086889	-0.1729824552788988	0.257188007528275	0.14681478321923	0.5994336095794704	0.294687089595395	0.5068979757600927	-2.516434728563548	-0.01070690404551674	-0.6330839592168728	0.6563270808638196	-2.300552763635928	-2.300552763635737	-0.3463337755317745	0.02856774927863221	-0.5686848214235655	-0.2291039892494084	-0.1270929159824142	0.03055931074045669	0.002536211046431746	-0.1205086725458531	-0.03226204188422181	0.01325679765727906	0.1193068583023851	-32.67571585846699	-2.100290675052567	2.411580311203907	-5.438159901718599	-416.3799578494173	-58.4199411488832	-12.09151384072737	0.4360974792060071	0.6045805777552693	-1.014540895225613	-0.8198064886324037	0.2203797715395825	-0.2946625843922362	1.411908360827208	-0.6421896224928781	-0.642189622468788	-0.4489316853620214	0.3353992095533856	-0.3488356626792568	0.3894494677197862	6.435190223125055e-07	2.467693733027376e-06	-6.984211396407001e-06	-4.031212279926674e-08	1.640961077593324e-06	3.293272684685875e-06	1.039587780842087e-06
1.54	-0.3601417987286918	0.05854444002419486	0.8023078816194233	0.9727081125112308	-0.3591741817139114	-0.06921287781897921	-0.3075886393209998	0.7511427039568652	0.7511427039568337	-0.04679613890174371	-0.1726778973440102	0.2514856482181724	0.1445455385228458	0.6032784070749176	0.3006710977455241	0.4964289396915215	-2.523439934850102	-0.008260438429970948	-0.6355990939284167	0.6702477354542421	-2.305933430933228	-2.305933430932877	-0.3504364440887542	0.03247031046604752	-0.5716572894286598	-0.2247464048482164	-0.1211406258043855	0.02721081454541671	0.003683109970787603	-0.1201589871817395	-0.02880761653260342	0.01279383036940409	0.1146840098420981	-31.41206947914723	-2.190860438868661	2.506414579266808	-6.231703266558525	-413.0830163912705	-59.45964009177592	-13.03311783222807	0.3206556262217184	0.5909260740619664	-1.080866766221823	-0.5564258009767178	0.3008058612384016	-0.2369885115437909	1.385586545995343	-0.4201139673011235	-0.4201139673011754	-0.2879352870320969	0.4643506102527483	-0.2332750393698517	0.5282784709233226	4.438028885991437e-07	4.083754303411232e-06	-4.533722749796216e-06	2.929361033753333e-07	1.193485842322566e-06	3.28153004077652e-06	9.025549134578534e-07
1.55	-0.3540931483223059	0.06157962634986468	0.807217190444244	0.9474489027011447	-0.3592422292333243	-0.07558703556671964	-0.3008184656233585	0.728065234285884	0.7280652342857198	-0.05031175420927727	-0.1723362954871192	0.2457573753372809	0.1423237814981507	0.6063951515488091	0.3062522906252856	0.4853344483367757	-2.528011491780887	-0.005341332661087059	-0.6390586419333253	0.6836689537521332	-2.309216069526335	-2.30921606952632	-0.3527315306494317	0.03592192077547897	-0.5739654009002189	-0.2196023844737995	-0.1180470316873572	0.0286520873371137	0.004724061014025718	-0.1143089644319953	-0.03323082574644491	0.01026253964841503	0.1117600354385079	-32.90053283707793	-1.018452662402169	2.53372902418645	-4.294445962855222	-410.0488582173671	-57.30612927752957	-13.96950290816733	0.2987181229740428	0.5248336475666898	-1.138531084343194	-0.3489408074706958	0.2875439868149883	-0.3741255951343377	1.302681923218832	-0.2307472101146356	-0.2307472101650511	-0.2058748932467632	0.2968454256134027	-0.2245323415494168	0.5065038042115196	6.094467849074494e-08	5.861198300961438e-06	-1.426363929284667e-07	7.451204066050718e-07	3.16239657293917e-07	2.557459493784926e-06	5.584874372611548e-07
1.56	-0.348015023618196	0.06466724815485775	0.8120125962026683	0.9221556932880535	-0.3592810694846449	-0.08199052632450332	-0.2939176212524401	0.7049652565478468	0.7049652565478901	-0.05385143629249528	-0.1719579216905354	0.2400070307135738	0.140153272673901	0.6091732666227953	0.3111581936101724	0.4736483264121827	-2.530239855445352	-0.002418984808170216	-0.6414656959450404	0.6963818701113735	-2.310435044311417	-2.310435044311738	-0.355249799316554	0.03982469845794153	-0.5760716379917963	-0.214496764758949	-0.1149534375704909	0.03009336012899832	0.005765012059278067	-0.1084589416822512	-0.03765403496021488	0.007731248927661796	0.1088360610347068	-34.38283733019485	0.1460438368367765	2.570109484929064	-2.388870707837925	-406.9924133898204	-55.1595812036124	-14.90140086081545	0.2529297462404598	0.4558680950871457	-1.199192880191245	-0.08778714771251218	0.3014542780448591	-0.02648971290514211	1.243926158264937	-0.007381205696311755	-0.007381205696311742	-0.3325717083209964	0.5545840848589918	-0.1929001633733494	0.5205983390101514	-1.103512615503039e-07	6.990372470799825e-06	1.793111593289877e-06	9.880832806010529e-07	-6.952212294327362e-08	2.381540279813053e-06	4.393180709341643e-07
